<?xml version="1.0" standalone="no"?>
<!DOCTYPE svg PUBLIC "-//W3C//DTD SVG 20010904//EN"
 "http://www.w3.org/TR/2001/REC-SVG-20010904/DTD/svg10.dtd">
<svg version="1.0" xmlns="http://www.w3.org/2000/svg"
 width="260.000000pt" height="260.000000pt" viewBox="0 0 260.000000 260.000000"
 preserveAspectRatio="xMidYMid meet">
<metadata>
Created by potrace 1.14, written by Peter Selinger 2001-2017
</metadata>
<g transform="translate(0.000000,260.000000) scale(0.100000,-0.100000)"
fill="#000000" stroke="none">
<path d="M940 1745 c0 -3 7 -21 15 -41 8 -19 10 -32 5 -29 -6 4 -10 -8 -10
-25 0 -18 -9 -44 -19 -58 -10 -15 -20 -31 -21 -37 -2 -5 -10 -25 -18 -43 -14
-29 -14 -34 -2 -44 12 -8 12 -9 -2 -4 -12 3 -18 0 -18 -9 0 -12 -8 -10 -41 7
-24 12 -44 17 -49 12 -6 -6 4 -17 24 -28 l35 -18 -22 -22 c-12 -11 -40 -43
-61 -69 -21 -26 -52 -61 -69 -77 -29 -27 -32 -28 -60 -14 -28 15 -57 13 -57
-4 0 -4 12 -15 28 -24 26 -16 29 -15 66 7 l40 24 39 -23 c43 -26 71 -70 63
-101 -5 -21 19 -63 30 -52 4 4 1 13 -6 22 -8 10 -9 15 -1 15 10 0 13 -6 15
-40 1 -19 43 -22 50 -4 3 8 2 14 -2 14 -4 0 -8 19 -8 43 -1 23 -3 48 -5 56 -2
8 4 17 15 19 16 3 18 0 13 -27 -8 -38 8 -51 18 -14 5 21 8 24 16 12 5 -7 8
-21 8 -29 0 -10 -3 -8 -9 5 -7 15 -9 9 -9 -25 0 -25 3 -40 7 -33 4 7 9 -7 10
-33 1 -25 9 -52 17 -61 9 -8 14 -22 10 -30 -3 -10 -1 -13 9 -10 9 4 14 -2 15
-16 6 -80 5 -91 -8 -95 -10 -3 -12 2 -8 20 5 18 0 36 -17 61 -18 25 -21 38
-13 46 8 8 8 14 -1 23 -7 7 -12 24 -12 39 0 15 -5 31 -10 34 -7 4 -9 -2 -5
-17 3 -12 7 -33 8 -45 0 -12 5 -19 9 -17 4 3 8 1 8 -5 0 -17 -20 -23 -36 -10
-21 17 -30 2 -11 -19 24 -26 22 -79 -3 -92 -15 -8 -18 -7 -15 2 4 9 -5 13 -27
14 -18 0 -66 6 -106 13 -66 12 -73 15 -78 39 -3 15 -10 38 -15 51 -8 19 -7 22
5 18 7 -3 23 5 35 17 22 23 28 42 11 31 -5 -3 -10 -1 -10 5 0 7 -7 9 -17 5
-10 -3 -38 -8 -63 -11 -24 -2 -47 -10 -52 -17 -5 -8 -13 -6 -30 9 -39 36 -47
37 -81 11 -23 -17 -38 -22 -52 -16 -33 13 -44 10 -56 -12 -10 -19 -8 -20 10
-14 20 6 67 -4 116 -25 11 -4 29 -12 40 -16 18 -6 18 -8 3 -11 -33 -8 0 -43
68 -74 35 -16 70 -29 78 -29 7 0 16 -7 20 -15 7 -19 -4 -19 -29 -1 -26 17 -92
29 -99 18 -3 -5 8 -12 24 -16 33 -6 41 -26 10 -26 -32 0 -37 -46 -9 -76 36
-38 81 -63 114 -62 l30 1 -3 68 -4 69 41 0 c27 0 41 -4 41 -13 0 -7 20 -18 44
-25 51 -13 76 -35 76 -65 0 -38 -17 -52 -76 -62 -61 -11 -61 -11 -94 -97 -22
-57 -22 -57 -46 -42 -13 9 -28 13 -33 9 -10 -6 -91 -164 -91 -178 0 -11 63 4
99 25 31 17 33 18 26 1 -25 -58 -45 -128 -41 -140 4 -8 -2 -31 -11 -51 l-17
-36 -17 64 c-15 61 -17 63 -24 35 -11 -43 -51 -93 -77 -97 -16 -2 -24 -12 -29
-34 -3 -18 -16 -48 -28 -68 l-23 -36 117 0 117 0 -6 32 c-3 18 -3 27 0 21 8
-18 22 -16 27 5 4 14 5 14 6 -3 1 -17 3 -18 11 -5 8 12 10 11 10 -7 0 -27 6
-28 54 -8 20 8 36 13 36 10 0 -2 12 0 26 5 19 7 31 7 40 -1 11 -9 14 -8 14 7
0 16 4 15 26 -9 14 -15 23 -31 20 -36 -3 -5 52 -10 124 -10 87 -1 130 2 130 9
0 7 6 8 19 0 12 -6 102 -9 233 -9 117 1 203 4 191 6 -13 2 -23 8 -23 12 0 13
79 31 86 20 3 -5 30 -9 61 -9 45 0 54 -3 49 -15 -5 -13 18 -15 165 -15 l171 0
33 28 c59 49 119 89 190 127 39 20 77 44 86 51 8 8 20 14 26 14 18 0 55 -48
48 -61 -5 -8 -4 -10 3 -5 20 12 14 31 -22 65 -57 55 -83 222 -46 291 6 12 9
24 6 28 -7 6 -5 9 -34 -44 -27 -52 -28 -87 -1 -182 11 -40 19 -75 17 -77 -2
-2 -14 -5 -27 -7 -20 -2 -30 6 -54 44 -25 39 -27 50 -17 63 7 8 19 15 26 15 8
0 14 7 14 15 0 8 -3 15 -7 15 -9 0 -53 62 -53 73 0 4 7 7 16 7 9 0 25 10 36
22 l20 23 -7 -30 c-3 -17 6 -2 21 33 24 57 25 66 13 90 l-13 27 -4 -32 c-3
-34 -15 -40 -42 -23 -12 7 -12 12 4 29 15 17 17 26 9 43 -10 22 -11 21 -27
-17 -10 -22 -35 -117 -56 -211 -21 -95 -47 -191 -57 -215 -47 -104 -139 -146
-306 -137 -85 5 -96 7 -120 32 -24 24 -27 34 -26 86 2 69 14 84 76 94 23 3 54
12 70 20 15 8 60 29 98 47 39 17 66 33 60 35 -5 2 -39 -2 -74 -9 -96 -20 -231
8 -259 53 -11 19 -7 19 101 19 105 0 115 1 172 30 57 29 117 70 104 71 -4 0
-24 -7 -45 -17 -25 -10 -77 -18 -144 -20 -181 -8 -214 -7 -218 5 -2 7 -7 10
-11 7 -5 -2 -23 0 -41 5 -21 6 -39 6 -52 -1 -15 -8 -25 -5 -49 15 -17 14 -41
26 -53 26 -13 0 -23 6 -24 13 -8 56 -15 88 -22 92 -10 6 -1 45 11 45 5 0 9 7
9 15 0 8 -5 14 -11 12 -6 -1 -18 17 -26 41 -16 46 -52 72 -101 72 -35 0 -52
16 -52 51 l0 26 58 -13 c51 -12 70 -11 172 7 63 11 133 26 155 34 86 29 82 29
56 6 -21 -19 -21 -21 -5 -22 11 0 15 -2 9 -5 -5 -2 -8 -27 -7 -54 2 -28 -1
-57 -7 -64 -25 -30 -21 -77 9 -121 24 -35 41 -47 90 -64 54 -18 65 -19 93 -7
18 8 44 19 60 25 15 6 27 14 27 18 -1 5 -23 26 -50 47 -40 31 -50 45 -50 68 0
34 -20 34 -35 -1 -16 -35 -49 -24 -53 18 -2 21 0 31 7 27 15 -10 51 16 51 36
0 10 -7 18 -15 18 -8 0 -15 9 -15 19 0 14 5 18 18 14 17 -4 18 6 16 166 -1 94
2 171 5 171 4 0 20 -20 35 -45 16 -25 37 -45 46 -45 10 0 26 -12 36 -27 36
-56 48 -63 96 -59 75 5 294 116 306 155 3 8 0 11 -7 7 -14 -9 -13 0 4 44 8 22
14 28 14 16 2 -37 14 -6 31 80 19 95 11 164 -17 164 -13 0 -13 3 -3 15 10 13
3 26 -45 80 -31 36 -60 65 -65 65 -15 0 7 -68 30 -92 12 -12 31 -35 42 -50
l19 -28 -28 -2 c-41 -2 -46 -3 -68 -15 -26 -14 -149 -49 -200 -57 -22 -4 -83
-18 -135 -31 -102 -25 -193 -42 -415 -75 -77 -12 -154 -23 -171 -26 l-31 -6
-40 122 c-38 116 -39 123 -21 128 13 3 17 10 13 21 -4 9 -11 28 -15 43 -12 40
-110 132 -110 103 0 -3 7 -22 15 -41 9 -21 12 -47 8 -63 -10 -42 -51 -103
-100 -148 -40 -37 -48 -41 -67 -31 -11 6 -25 17 -29 24 -4 8 -14 14 -22 14
-27 0 -25 19 10 64 40 53 42 66 16 90 -11 10 -25 30 -31 46 -10 25 -60 70 -60
55z m100 -330 c13 -14 19 -25 12 -25 -6 0 -13 -8 -16 -18 -4 -10 -31 -44 -61
-75 -30 -31 -55 -62 -55 -69 0 -7 -14 -14 -32 -15 -18 -2 -34 -7 -36 -12 -2
-6 -13 -1 -25 10 -12 11 -39 29 -59 40 l-37 19 57 59 c31 33 81 80 109 105
l53 45 33 -19 c18 -11 44 -31 57 -45z m258 -149 c-15 -13 -25 -26 -23 -27 2
-2 -10 -5 -26 -6 -16 -1 -29 2 -29 7 0 6 9 10 21 10 11 0 32 9 46 20 36 28 44
25 11 -4z m-134 -28 c-8 -12 -34 11 -34 30 0 13 3 12 20 -3 11 -10 17 -22 14
-27z m32 -20 l-11 -31 -3 28 c-5 36 6 64 17 46 5 -7 3 -27 -3 -43z m-189 -125
c-3 -10 -5 -4 -5 12 0 17 2 24 5 18 2 -7 2 -21 0 -30z m262 -67 c28 -51 32
-66 16 -66 -8 0 -15 7 -15 15 0 8 -6 15 -14 15 -9 0 -12 8 -8 26 3 19 1 25 -7
20 -7 -5 -11 1 -11 17 0 29 14 45 19 21 1 -9 11 -31 20 -48z m-318 -149 c-10
-9 -11 -8 -5 6 3 10 9 15 12 12 3 -3 0 -11 -7 -18z m35 -49 c4 -6 0 -16 -8
-22 -8 -6 -17 -18 -21 -26 -4 -10 -6 -8 -6 8 -1 15 -7 22 -20 22 -26 0 -36 17
-14 23 34 9 62 7 69 -5z m30 -81 c12 4 14 0 9 -23 -5 -23 -4 -26 5 -14 10 12
11 11 7 -7 -3 -13 -1 -23 3 -23 5 0 11 -13 15 -30 4 -16 10 -30 15 -30 4 0 10
-9 13 -20 3 -11 1 -20 -5 -20 -5 0 -6 -9 -3 -20 10 -32 -2 -23 -26 20 -26 46
-29 47 -54 20 -19 -21 -28 -88 -15 -105 11 -13 31 -65 26 -65 -10 0 -47 71
-54 106 l-9 39 -7 -30 c-8 -31 -20 -62 -40 -105 -15 -31 -55 -37 -81 -13 -53
48 17 188 101 202 35 6 39 9 42 39 2 19 -3 43 -11 56 -13 20 -13 22 4 23 12 1
21 -9 29 -32 6 -18 17 -36 25 -39 12 -4 11 1 -1 36 -8 22 -13 48 -13 57 1 9 4
7 6 -6 3 -14 9 -20 19 -16z m-396 13 c0 -5 -5 -10 -11 -10 -5 0 -7 5 -4 10 3
6 8 10 11 10 2 0 4 -4 4 -10z m436 -391 c-12 -18 -16 -20 -16 -7 0 29 12 50
22 40 7 -7 5 -18 -6 -33z m-217 12 c18 -12 8 -40 -45 -122 -24 -37 -44 -73
-44 -79 0 -7 -7 -9 -16 -6 -9 3 -18 6 -20 6 -11 0 -2 54 23 128 27 79 29 82
58 82 16 0 36 -4 44 -9z m198 -63 c-3 -8 -6 -5 -6 6 -1 11 2 17 5 13 3 -3 4
-12 1 -19z m22 -76 c29 -28 29 -27 5 -101 -3 -10 -7 -11 -18 -2 -10 8 -16 9
-21 1 -3 -6 -10 -8 -14 -6 -7 5 8 136 16 136 3 0 17 -12 32 -28z m334 -42 c3
-11 1 -18 -4 -14 -5 3 -9 12 -9 20 0 20 7 17 13 -6z m-379 -106 c9 -3 16 -15
16 -25 0 -11 7 -19 16 -19 8 0 12 -4 9 -10 -8 -13 -105 -13 -105 0 0 5 5 21
12 35 11 25 24 30 52 19z"/>
<path d="M940 1449 c0 -5 5 -7 10 -4 6 3 10 8 10 11 0 2 -4 4 -10 4 -5 0 -10
-5 -10 -11z"/>
<path d="M787 1293 c-4 -3 -7 -11 -7 -17 0 -6 5 -5 12 2 6 6 9 14 7 17 -3 3
-9 2 -12 -2z"/>
<path d="M1037 198 c-2 -18 -3 -35 0 -38 7 -8 23 24 23 48 0 34 -17 26 -23
-10z"/>
<path d="M1000 70 c0 -5 5 -10 11 -10 5 0 7 5 4 10 -3 6 -8 10 -11 10 -2 0 -4
-4 -4 -10z"/>
<path d="M690 1437 c0 -22 31 -19 37 3 4 13 3 13 -6 0 -10 -13 -12 -13 -21 0
-8 13 -10 12 -10 -3z"/>
<path d="M670 1421 c0 -6 4 -13 10 -16 6 -3 7 1 4 9 -7 18 -14 21 -14 7z"/>
<path d="M2235 600 c-3 -5 -1 -10 4 -10 6 0 11 5 11 10 0 6 -2 10 -4 10 -3 0
-8 -4 -11 -10z"/>
<path d="M557 311 c-4 -17 -3 -21 5 -13 5 5 8 16 6 23 -3 8 -7 3 -11 -10z"/>
<path d="M2463 155 c-18 -8 -33 -17 -33 -20 0 -3 9 -1 20 5 11 6 20 7 20 2 0
-5 -21 -18 -47 -30 -27 -11 -81 -35 -121 -53 -70 -31 -109 -59 -83 -59 7 0 69
28 139 62 70 34 130 61 135 60 4 -1 7 3 7 8 0 6 -5 10 -11 10 -8 0 -8 5 1 15
15 18 14 18 -27 0z"/>
<path d="M1 36 c1 -23 3 -33 6 -24 4 16 6 16 28 2 43 -28 45 -10 5 27 l-40 36
1 -41z"/>
</g>
</svg>
